<svg xmlns="http://www.w3.org/2000/svg" version="1.1" xmlns:xlink="http://www.w3.org/1999/xlink" xmlns:svgjs="http://svgjs.dev/svgjs" width="1440" height="560" preserveAspectRatio="none" viewBox="0 0 1440 560"><g mask="url(&quot;#SvgjsMask1043&quot;)" fill="none"><rect width="1440" height="560" x="0" y="0" fill="rgba(9, 7, 23, 1)"></rect><path d="M0,314.168C66.283,312.415,131.427,323.017,194.554,302.732C272.419,277.711,368.363,258.119,403.806,184.412C439.198,110.811,385.033,26.735,365.387,-52.535C347.804,-123.481,334.95,-194.367,294.794,-255.44C250.329,-323.066,200.522,-395.729,123.462,-420.473C45.92,-445.372,-42.807,-426.984,-113.5,-386.545C-178.021,-349.637,-199.404,-270.793,-243.197,-210.732C-282.534,-156.782,-340.512,-115.931,-357.833,-51.449C-376.203,16.939,-369.657,90.99,-341.722,156.059C-313.435,221.948,-266.36,283.093,-201.284,313.203C-139.132,341.96,-68.458,315.979,0,314.168" fill="#06050f"></path><path d="M1440 1201.259C1564.662 1214.586 1696.101 1190.259 1799.173 1118.885 1900.79 1048.518 1954.537 930.5409999999999 1998.0259999999998 814.842 2039.2240000000002 705.239 2074.395 585.931 2041.771 473.478 2010.613 366.078 1892.655 315.209 1826.848 224.79399999999998 1752.497 122.64100000000002 1752.44-55.615999999999985 1631.085-90.77700000000004 1509.606-125.97400000000005 1403.784 4.219000000000051 1296.452 71.12099999999998 1215.929 121.31200000000001 1150.978 184.44 1083.1309999999999 250.772 1008.567 323.66999999999996 911.956 380.423 878.919 479.329 843.44 585.543 852.168 705.362 897.01 807.975 942.204 911.393 1035.6019999999999 980.823 1127.007 1047.027 1223.151 1116.664 1321.959 1188.6399999999999 1440 1201.259" fill="#0c0a1f"></path></g><defs><mask id="SvgjsMask1043"><rect width="1440" height="560" fill="#ffffff"></rect></mask></defs></svg>